<?xml version="1.0" encoding="UTF-8" standalone="no"?>
<!-- Generator: Adobe Illustrator 26.5.0, SVG Export Plug-In . SVG Version: 6.00 Build 0)  -->

<svg
   version="1.0"
   id="レイヤー_1"
   x="0px"
   y="0px"
   viewBox="0 0 1950 550"
   style="enable-background:new 0 0 1950 550;"
   xml:space="preserve"
   xmlns="http://www.w3.org/2000/svg"
   xmlns:svg="http://www.w3.org/2000/svg"><defs
   id="defs1116" />
<style
   type="text/css"
   id="style1103">
	.st0{fill:#00A7EA;stroke:#231815;stroke-width:9.206038e-02;stroke-miterlimit:10;}
	.st1{fill:#FFFFFF;}
</style>
<rect
   width="1950"
   height="550"
   id="rect1105" />
<path
   class="st0"
   d="M275,359.8c-46.9,0-85-38.1-85-85c0-1.8,0.1-3.7,0.2-5.5c2.7-41.7,36.2-75.9,77.9-79.2c20.3-1.7,40.5,4,56.9,16  c6.3,4.5,15,3.7,20.5-1.8l49.5-49.5c3.9-3.9,3.9-10.2,0-14.1c-0.1-0.1-0.3-0.3-0.4-0.4c-35.4-31.5-81.7-47.8-129-45.3  c-92.3,4.7-166.9,80.4-170.5,172.7c-3.9,99.3,73.5,183,172.9,186.9c46.5,1.8,91.9-14.5,126.7-45.4c4.1-3.7,4.4-10,0.7-14.1  c-0.1-0.1-0.2-0.3-0.4-0.4l-49.5-49.5c-5.5-5.5-14.2-6.3-20.6-1.7C310.4,354.2,292.9,359.8,275,359.8z"
   id="path1107" />
<path
   class="st1"
   d="M560.7,157.8c-31,0-60.8,12.3-82.7,34.3l-15.6,15.6l-33.2-33.2c-3.9-3.9-10.2-3.9-14.1,0l-53,53  c-3.9,3.9-3.9,10.2,0,14.1c0,0,0,0,0,0l33.2,33.2L362,308c-3.9,3.9-3.9,10.2,0,14.1c0,0,0,0,0,0l53,53c3.9,3.9,10.2,3.9,14.1,0  c0,0,0,0,0,0l33.2-33.2l15.6,15.6c45.7,45.7,119.8,45.7,165.5,0c45.7-45.7,45.7-119.8,0-165.5C621.5,170.1,591.7,157.8,560.7,157.8  L560.7,157.8z M560.7,296.8c-5.8,0-11.4-2.3-15.6-6.4l0,0l-15.6-15.6l15.6-15.6l0,0c8.6-8.6,22.5-8.6,31.1,0  c8.6,8.6,8.6,22.5,0,31.1C572.1,294.5,566.5,296.8,560.7,296.8z"
   id="path1109" />
<path
   class="st1"
   d="M850.2,365.4c-14.2,0-26.1-1.4-35.7-4.1c-9.6-2.8-17.3-6.7-23.1-12c-5.8-5.1-10.1-11.6-12.6-18.8  c-2.7-8-3.9-16.3-3.8-24.7c0.1-9.7,1-19.4,2.9-29c3.2-16.6,7.7-30,13.5-40.3c5.8-10.3,13-18.3,21.5-24.1c8.8-5.8,18.6-9.9,29-11.8  c11.9-2.2,23.9-3.3,36-3.2h8.4c3.3,0,6.7,0.1,10.4,0.2c3.6,0.1,7.3,0.2,11.2,0.3c3.8,0.1,7.4,0.2,10.8,0.2l-15,39.8  c-4.5-0.2-9.1-0.4-13.9-0.5c-4.8-0.1-10-0.2-15.8-0.2c-6-0.1-12.1,0.4-18,1.6c-4.7,0.9-9.1,3-12.8,6.1c-3.8,3.4-6.8,7.6-8.8,12.3  c-2.7,6.5-4.6,13.3-5.7,20.2c-1.1,4.9-1.9,9.3-2.4,13.2c-0.5,3.4-0.8,6.9-0.8,10.4c0,10,2.6,16.6,7.7,19.8  c5.1,3.2,13.3,4.8,24.5,4.8h18.6c6.3,0,14-0.2,23.1-0.6l-15.3,39.8c-5.5,0.2-11.4,0.4-17.5,0.5C860.6,365.4,855.1,365.4,850.2,365.4  z M976,128h50.7l-46.2,236.8h-50.7L976,128z M1163.2,198.1h50.7l-20.1,103.6c-2.3,12.5-5.7,23.2-10,31.9c-4,8.2-9.8,15.5-16.9,21.2  c-7.4,5.6-15.9,9.6-25,11.6c-9.8,2.3-21.3,3.5-34.4,3.5c-22.5,0-39.6-4.4-51.3-13.1c-11.7-8.7-17.5-22.1-17.5-40.2  c0-3,0.2-6.2,0.5-9.7c0.3-3.3,0.8-6.5,1.4-9.7l19.4-99.1h50.7l-19.8,101.4c-0.4,2.1-0.7,4.2-1,6.2c-0.2,2-0.3,3.6-0.3,4.6  c0,6.8,1.8,11.6,5.4,14.3c3.6,2.8,8.9,4.1,15.9,4.1c4.5,0.1,9-0.3,13.4-1.3c3.4-0.7,6.5-2.3,9.1-4.6c2.7-2.5,4.7-5.7,6.1-9.1  c1.8-4.6,3.2-9.4,4-14.3L1163.2,198.1z M1330.6,264.1c13.4,3.6,23.4,8.6,30.1,14.8c6.7,6.3,10,15.1,10,26.6c0,5.7-0.7,11.3-1.9,16.9  c-3,14.9-10.9,25.8-23.9,32.7c-13,6.9-31.3,10.4-55.1,10.4h-30.3c-5.7,0-11.7-0.1-17.9-0.2c-6.2-0.1-12.1-0.3-17.8-0.5l13.1-39.2  c5.7,0.2,11.1,0.4,16.1,0.5c5,0.1,9.9,0.2,14.7,0.2h31.1c4.5,0.1,9-0.2,13.4-1c3-0.4,5.7-1.9,7.6-4.1c1.5-2.1,2.3-4.7,2.2-7.3  c0.2-2.5-1.1-4.8-3.2-6.1c-3.1-1.6-6.4-2.8-9.9-3.5l-30-8c-10.4-3-18.8-7.6-25.2-14c-6.4-6.4-9.6-15.3-9.6-26.8  c0.1-4.6,0.6-9.2,1.6-13.7c3-15.3,10.5-26.5,22.6-33.6c12.1-7.1,29.6-10.7,52.6-10.7h13.5c4.4,0,9,0.1,13.9,0.2  c4.9,0.1,10.4,0.3,16.6,0.5c6.2,0.2,13.4,0.4,21.7,0.6l-14.3,38.9c-8.3-0.2-15.4-0.4-21.2-0.5c-5.8-0.1-10.9-0.2-15.1-0.3  c-4.3-0.1-8-0.2-11.3-0.2h-9.7c-4.2,0-8.4,0.2-12.6,0.6c-3.3,0.4-5.8,1.5-7.5,3.2c-0.9,1-1.6,2.2-1.9,3.5c-0.4,1.3-0.6,2.7-0.6,4.1  c-0.2,2.2,0.9,4.3,2.9,5.4c2.6,1.4,5.4,2.4,8.3,3.2L1330.6,264.1z M1472.8,237.9l-11.8,61.2c-0.8,3.6-1.3,7.2-1.3,10.8  c0,5.1,1.4,8.9,4.3,11.5c2.9,2.5,7.9,3.8,15.1,3.8h17.4c3.5,0,6.7-0.1,9.6-0.2c2.9-0.1,4.8-0.2,5.9-0.2l-15.3,39.8h-5.6  c-2.9,0-6.1,0.1-9.6,0.2c-3.5,0.1-7.1,0.2-10.7,0.2h-8.6c-18.9,0-32.7-4.1-41.3-12.4c-8.6-8.3-12.9-19.9-12.9-34.7  c0-3.2,0.2-6.4,0.6-9.6c0.4-3.4,1-6.9,1.6-10.5l27.1-139.6l52-6.1l-8.9,45.9h51l-15.3,39.8L1472.8,237.9z M1591.9,301.1v5.1  c0.2,7.9,2.6,13.6,7.2,17.2c4.6,3.6,12.4,5.4,23.4,5.4c11.7,0,21.9-0.1,30.6-0.3c8.7-0.2,17.8-0.6,27.4-1.3l-14.3,36.7  c-6.6,0.6-14.5,1.1-23.7,1.3c-9.2,0.2-19.1,0.3-29.5,0.3c-13.2,0-24.2-1.5-33-4.5c-8.8-3-15.8-7.1-21-12.4c-5.2-5.3-9-11.8-11.2-19  c-2.3-7.7-3.4-15.7-3.3-23.7c0-9.3,1-18.6,2.9-27.7c3.2-17.6,7.9-32,14-43c6.2-11,13.3-19.7,21.5-26c7.9-6.2,17.1-10.5,26.9-12.8  c10-2.3,20.3-3.4,30.6-3.3c21.7,0,37.8,4,48.3,12.1c10.5,8.1,15.8,19.7,15.8,34.7c-0.2,2.8-0.5,5.6-0.8,8.4  c-0.3,2.9-0.8,5.9-1.4,8.8c-3.6,16.2-11.5,27.5-23.7,34.1c-12.2,6.6-29.9,9.9-53.1,9.9L1591.9,301.1z M1636.5,229  c-10.8,0-19,2.7-24.5,8.1c-5.5,5.4-10,15-13.4,28.8h27.7c4.4,0,8.8-0.2,13.2-0.6c3-0.3,6-1.1,8.8-2.4c2.2-1,4-2.5,5.4-4.5  c1.4-2.1,2.5-4.4,3.2-6.9c0.9-2.7,1.3-5.5,1.3-8.3c0.2-4.1-1.6-8-4.8-10.5C1650.2,230.3,1644.6,229,1636.5,229z M1821.2,197.1  c7.7,0,13.9,0.1,18.6,0.2c4.8,0.1,9.8,0.4,15.1,0.8l-15.6,40.8c-3.2-0.2-6.2-0.4-8.9-0.5c-2.8-0.1-5.4-0.2-8-0.2  c-5-0.1-10,0.4-14.8,1.4c-3.6,0.8-7,2.6-9.7,5.1c-2.7,2.8-4.9,6.1-6.2,9.7c-1.9,5.1-3.3,10.3-4.3,15.6l-18.5,94.7h-50.7l19.1-97.9  c2.8-14.2,6.5-25.9,11.3-34.9c4.8-9,10.7-16.1,17.7-21.4c7.2-5.3,15.4-8.9,24.1-10.7C1800.6,198,1810.9,197,1821.2,197.1z"
   id="path1111" />
</svg>
