<?xml version="1.0" encoding="UTF-8" standalone="no"?>
<!-- Created with Inkscape (http://www.inkscape.org/) -->

<svg
   version="1.1"
   id="svg840"
   xml:space="preserve"
   width="409.34399"
   height="165.53333"
   viewBox="0 0 409.34399 165.53333"
   xmlns="http://www.w3.org/2000/svg"
   xmlns:svg="http://www.w3.org/2000/svg"><defs
     id="defs844"><clipPath
       clipPathUnits="userSpaceOnUse"
       id="clipPath860"><path
         d="M 0,124.15 H 307.008 V 0 H 0 Z"
         id="path858" /></clipPath></defs><g
     id="g846"
     transform="matrix(1.3333333,0,0,-1.3333333,0,165.53333)"><path
       d="m 298.504,8.504 h -290 v 107.143 h 290 z"
       style="fill:#000000;fill-opacity:1;fill-rule:nonzero;stroke:none"
       id="path848" /><g
       id="g850"
       transform="translate(30.0224,101.2739)"><path
         d="m 0,0 h 3.82 v -23.444 l 13.766,11.983 h 5.61 L 6.877,-25.624 24.151,-41.151 H 18.774 L 3.82,-27.783 V -41.151 H 0 Z"
         style="fill:#ffffff;fill-opacity:1;fill-rule:nonzero;stroke:none"
         id="path852" /></g><g
       id="g854"><g
         id="g856"
         clip-path="url(#clipPath860)"><g
           id="g862"
           transform="translate(75.77,86.8931)"><path
             d="m 0,0 c -2.126,0 -4.089,-0.523 -5.888,-1.569 -1.799,-1.043 -3.231,-2.511 -4.294,-4.401 -1.063,-1.889 -1.593,-3.888 -1.593,-5.995 0,-2.092 0.536,-4.091 1.608,-5.998 1.071,-1.909 2.512,-3.394 4.319,-4.456 1.808,-1.063 3.749,-1.595 5.821,-1.595 2.088,0 4.069,0.526 5.941,1.579 1.872,1.057 3.311,2.481 4.321,4.28 1.008,1.799 1.513,3.826 1.513,6.078 0,3.435 -1.131,6.307 -3.394,8.613 C 6.091,-1.154 3.307,0 0,0 m 15.268,2.92 v -29.69 h -3.766 v 5.102 c -1.601,-1.947 -3.398,-3.409 -5.39,-4.394 -1.992,-0.98 -4.17,-1.472 -6.535,-1.472 -4.203,0 -7.791,1.521 -10.766,4.568 -2.974,3.048 -4.461,6.755 -4.461,11.122 0,4.277 1.5,7.932 4.502,10.969 3.001,3.039 6.613,4.559 10.834,4.559 2.437,0 4.643,-0.52 6.618,-1.556 1.972,-1.035 3.706,-2.594 5.198,-4.665 V 2.92 Z"
             style="fill:#ffffff;fill-opacity:1;fill-rule:nonzero;stroke:none"
             id="path864" /></g><g
           id="g866"
           transform="translate(106.5693,89.813)"><path
             d="m 0,0 h 3.902 v -4.338 c 1.164,1.708 2.392,2.986 3.684,3.833 1.292,0.847 2.638,1.269 4.039,1.269 1.057,0 2.184,-0.337 3.385,-1.01 l -1.992,-3.22 c -0.802,0.344 -1.475,0.52 -2.02,0.52 -1.273,0 -2.502,-0.523 -3.684,-1.569 C 6.131,-5.564 5.23,-7.186 4.611,-9.387 4.139,-11.08 3.902,-14.499 3.902,-19.649 V -29.69 H 0 Z"
             style="fill:#ffffff;fill-opacity:1;fill-rule:nonzero;stroke:none"
             id="path868" /></g><g
           id="g870"
           transform="translate(143.3281,86.8931)"><path
             d="m 0,0 c -2.122,0 -4.085,-0.523 -5.887,-1.569 -1.798,-1.043 -3.231,-2.511 -4.292,-4.401 -1.062,-1.889 -1.595,-3.888 -1.595,-5.995 0,-2.092 0.539,-4.091 1.611,-5.998 1.071,-1.909 2.51,-3.394 4.318,-4.456 1.807,-1.063 3.748,-1.595 5.819,-1.595 2.091,0 4.07,0.526 5.943,1.579 1.869,1.057 3.308,2.481 4.317,4.28 1.01,1.799 1.513,3.826 1.513,6.078 0,3.435 -1.129,6.307 -3.392,8.613 C 6.093,-1.154 3.31,0 0,0 m 15.267,2.92 v -29.69 h -3.764 v 5.102 c -1.599,-1.947 -3.396,-3.409 -5.389,-4.394 -1.992,-0.98 -4.172,-1.472 -6.533,-1.472 -4.205,0 -7.793,1.521 -10.769,4.568 -2.973,3.048 -4.459,6.755 -4.459,11.122 0,4.277 1.5,7.932 4.5,10.969 3.003,3.039 6.617,4.559 10.837,4.559 2.438,0 4.644,-0.52 6.616,-1.556 1.972,-1.035 3.707,-2.594 5.197,-4.665 V 2.92 Z"
             style="fill:#ffffff;fill-opacity:1;fill-rule:nonzero;stroke:none"
             id="path872" /></g><g
           id="g874"
           transform="translate(172.1982,101.2739)"><path
             d="m 0,0 h 3.819 v -23.444 l 13.769,11.983 h 5.605 L 6.875,-25.624 24.152,-41.151 H 18.773 L 3.819,-27.783 V -41.151 H 0 Z"
             style="fill:#ffffff;fill-opacity:1;fill-rule:nonzero;stroke:none"
             id="path876" /></g><g
           id="g878"
           transform="translate(204.8154,89.813)"><path
             d="m 0,0 h 3.821 v -13.862 c 0,-3.384 0.181,-5.714 0.55,-6.988 0.543,-1.817 1.588,-3.257 3.127,-4.31 1.537,-1.056 3.375,-1.584 5.508,-1.584 2.128,0 3.935,0.514 5.421,1.542 1.487,1.028 2.511,2.379 3.075,4.052 0.385,1.147 0.575,3.575 0.575,7.288 V 0 h 3.904 v -14.572 c 0,-4.093 -0.48,-7.179 -1.434,-9.252 -0.951,-2.074 -2.393,-3.697 -4.313,-4.869 -1.92,-1.176 -4.323,-1.761 -7.217,-1.761 -2.894,0 -5.307,0.585 -7.244,1.761 -1.936,1.172 -3.386,2.807 -4.337,4.91 C 0.477,-21.681 0,-18.52 0,-14.3 Z"
             style="fill:#ffffff;fill-opacity:1;fill-rule:nonzero;stroke:none"
             id="path880" /></g><g
           id="g882"
           transform="translate(243.4248,89.813)"><path
             d="m 0,0 h 3.898 v -4.338 c 1.166,1.708 2.393,2.986 3.687,3.833 1.29,0.847 2.636,1.269 4.039,1.269 1.056,0 2.185,-0.337 3.382,-1.01 l -1.988,-3.22 c -0.804,0.344 -1.477,0.52 -2.02,0.52 -1.275,0 -2.501,-0.523 -3.687,-1.569 C 6.13,-5.564 5.229,-7.186 4.609,-9.387 4.138,-11.08 3.898,-14.499 3.898,-19.649 V -29.69 H 0 Z"
             style="fill:#ffffff;fill-opacity:1;fill-rule:nonzero;stroke:none"
             id="path884" /></g><path
           d="m 272.284,89.813 h 3.821 v -29.69 h -3.821 z m 1.896,12.225 c 0.87,0 1.61,-0.311 2.226,-0.927 0.616,-0.619 0.927,-1.365 0.927,-2.237 0,-0.857 -0.311,-1.595 -0.927,-2.211 -0.616,-0.621 -1.356,-0.927 -2.226,-0.927 -0.85,0 -1.585,0.306 -2.201,0.927 -0.617,0.616 -0.92,1.354 -0.92,2.211 0,0.872 0.303,1.618 0.92,2.237 0.616,0.616 1.351,0.927 2.201,0.927"
           style="fill:#ffffff;fill-opacity:1;fill-rule:nonzero;stroke:none"
           id="path886" /><g
           id="g888"
           transform="translate(86.8755,39.708)"><path
             d="m 0,0 c -1.788,0 -3.295,-0.625 -4.52,-1.875 -1.223,-1.252 -1.835,-2.807 -1.835,-4.666 0,-1.221 0.273,-2.318 0.818,-3.291 0.546,-0.977 1.327,-1.748 2.346,-2.318 1.016,-0.573 2.091,-0.856 3.221,-0.856 1.111,0 2.155,0.287 3.133,0.861 0.979,0.579 1.758,1.383 2.339,2.415 0.579,1.033 0.869,2.117 0.869,3.25 0,1.142 -0.287,2.222 -0.861,3.246 C 4.934,-2.209 4.16,-1.414 3.186,-0.85 2.212,-0.283 1.152,0 0,0 m -8.277,1.582 h 2.069 v -2.957 c 0.817,1.123 1.758,1.967 2.821,2.529 1.063,0.563 2.25,0.842 3.558,0.842 2.285,0 4.238,-0.824 5.863,-2.469 1.624,-1.644 2.437,-3.625 2.437,-5.943 0,-2.363 -0.805,-4.373 -2.416,-6.022 -1.608,-1.652 -3.55,-2.476 -5.824,-2.476 -1.28,0 -2.457,0.266 -3.53,0.797 -1.073,0.533 -2.042,1.326 -2.909,2.381 v -8.649 h -2.069 z"
             style="fill:#ffffff;fill-opacity:1;fill-rule:nonzero;stroke:none"
             id="path890" /></g><g
           id="g892"
           transform="translate(102.9756,41.29)"><path
             d="m 0,0 h 2.114 v -2.352 c 0.63,0.926 1.296,1.622 1.996,2.081 0.699,0.457 1.428,0.685 2.187,0.685 0.571,0 1.183,-0.182 1.834,-0.547 l -1.08,-1.746 c -0.434,0.188 -0.797,0.283 -1.094,0.283 -0.69,0 -1.355,-0.285 -1.995,-0.851 C 3.321,-3.014 2.833,-3.891 2.498,-5.084 2.242,-6.002 2.114,-7.855 2.114,-10.643 v -5.439 H 0 Z"
             style="fill:#ffffff;fill-opacity:1;fill-rule:nonzero;stroke:none"
             id="path894" /></g><g
           id="g896"
           transform="translate(125.0117,39.6787)"><path
             d="m 0,0 c -1.721,0 -3.2,-0.637 -4.437,-1.908 -1.235,-1.27 -1.853,-2.809 -1.853,-4.612 0,-1.162 0.282,-2.246 0.846,-3.25 0.562,-1.007 1.324,-1.781 2.284,-2.33 0.96,-0.546 2.012,-0.818 3.16,-0.818 1.146,0 2.2,0.272 3.159,0.818 0.959,0.549 1.722,1.323 2.285,2.33 0.563,1.004 0.845,2.088 0.845,3.25 0,1.803 -0.621,3.342 -1.861,4.612 C 3.186,-0.637 1.711,0 0,0 m 0.007,2.025 c 2.478,0 4.53,-0.896 6.161,-2.691 1.479,-1.637 2.221,-3.572 2.221,-5.809 0,-2.248 -0.785,-4.209 -2.349,-5.888 -1.564,-1.68 -3.576,-2.522 -6.033,-2.522 -2.469,0 -4.485,0.842 -6.049,2.522 -1.564,1.679 -2.348,3.64 -2.348,5.888 0,2.227 0.741,4.159 2.222,5.795 1.63,1.805 3.688,2.705 6.175,2.705"
             style="fill:#ffffff;fill-opacity:1;fill-rule:nonzero;stroke:none"
             id="path898" /></g><g
           id="g900"
           transform="translate(149.5508,39.708)"><path
             d="m 0,0 c -1.149,0 -2.215,-0.283 -3.189,-0.85 -0.972,-0.564 -1.75,-1.359 -2.324,-2.384 -0.578,-1.024 -0.865,-2.104 -0.865,-3.246 0,-1.133 0.289,-2.217 0.873,-3.25 0.58,-1.032 1.359,-1.836 2.34,-2.415 0.978,-0.574 2.03,-0.861 3.148,-0.861 1.135,0 2.206,0.283 3.221,0.856 1.016,0.57 1.792,1.341 2.341,2.318 0.544,0.973 0.818,2.07 0.818,3.291 0,1.859 -0.611,3.414 -1.837,4.666 C 3.303,-0.625 1.792,0 0,0 M 8.273,7.79 V -14.5 h -2.04 v 2.764 c -0.869,-1.055 -1.843,-1.848 -2.92,-2.381 -1.082,-0.531 -2.262,-0.797 -3.541,-0.797 -2.277,0 -4.221,0.824 -5.832,2.476 -1.61,1.649 -2.418,3.659 -2.418,6.022 0,2.318 0.813,4.299 2.439,5.943 1.63,1.645 3.583,2.469 5.868,2.469 1.32,0 2.516,-0.279 3.588,-0.842 C 4.483,0.592 5.42,-0.252 6.233,-1.375 V 7.79 Z"
             style="fill:#ffffff;fill-opacity:1;fill-rule:nonzero;stroke:none"
             id="path902" /></g><g
           id="g904"
           transform="translate(166.7822,41.29)"><path
             d="m 0,0 h 2.07 v -7.508 c 0,-1.834 0.099,-3.097 0.295,-3.785 0.295,-0.986 0.86,-1.764 1.693,-2.334 0.838,-0.574 1.833,-0.857 2.988,-0.857 1.154,0 2.133,0.277 2.936,0.832 0.801,0.556 1.362,1.291 1.667,2.197 0.206,0.621 0.31,1.935 0.31,3.947 V 0 h 2.113 v -7.895 c 0,-2.216 -0.259,-3.884 -0.777,-5.007 -0.518,-1.125 -1.294,-2.006 -2.335,-2.641 -1.041,-0.635 -2.34,-0.953 -3.908,-0.953 -1.57,0 -2.874,0.318 -3.925,0.953 -1.052,0.635 -1.834,1.523 -2.352,2.66 C 0.258,-11.742 0,-10.033 0,-7.746 Z"
             style="fill:#ffffff;fill-opacity:1;fill-rule:nonzero;stroke:none"
             id="path906" /></g><g
           id="g908"
           transform="translate(205.6035,37.9502)"><path
             d="m 0,0 -1.642,-1.021 c -1.419,1.882 -3.349,2.822 -5.804,2.822 -1.957,0 -3.583,-0.627 -4.877,-1.889 -1.294,-1.26 -1.943,-2.789 -1.943,-4.592 0,-1.172 0.296,-2.273 0.892,-3.306 0.596,-1.035 1.413,-1.836 2.454,-2.407 1.036,-0.572 2.2,-0.855 3.489,-0.855 2.362,0 4.291,0.939 5.789,2.82 L 0,-9.506 c -0.771,-1.158 -1.802,-2.057 -3.097,-2.693 -1.294,-0.639 -2.769,-0.957 -4.426,-0.957 -2.543,0 -4.655,0.806 -6.328,2.426 -1.677,1.615 -2.51,3.58 -2.51,5.896 0,1.557 0.387,3.004 1.169,4.34 0.788,1.332 1.864,2.375 3.231,3.123 1.372,0.748 2.904,1.125 4.598,1.125 1.067,0 2.092,-0.164 3.081,-0.488 C -3.289,2.94 -2.45,2.516 -1.761,1.996 -1.072,1.473 -0.482,0.807 0,0"
             style="fill:#ffffff;fill-opacity:1;fill-rule:nonzero;stroke:none"
             id="path910" /></g><g
           id="g912"
           transform="translate(215.9209,47.2612)"><path
             d="M 0,0 H 2.071 V -5.971 H 5.354 V -7.762 H 2.071 V -22.053 H 0 v 14.291 h -2.82 v 1.791 H 0 Z"
             style="fill:#ffffff;fill-opacity:1;fill-rule:nonzero;stroke:none"
             id="path914" /></g><g
           id="g916"
           transform="translate(237.0049,39.5303)"><path
             d="m 0,0 -1.332,-1.373 c -1.102,1.074 -2.184,1.609 -3.245,1.609 -0.668,0 -1.243,-0.218 -1.725,-0.666 -0.48,-0.441 -0.719,-0.959 -0.719,-1.55 0,-0.522 0.197,-1.018 0.596,-1.493 0.393,-0.484 1.222,-1.048 2.484,-1.701 1.545,-0.797 2.589,-1.566 3.144,-2.305 0.543,-0.75 0.813,-1.591 0.813,-2.529 0,-1.32 -0.467,-2.437 -1.394,-3.355 -0.927,-0.916 -2.086,-1.373 -3.479,-1.373 -0.926,0 -1.813,0.203 -2.657,0.605 -0.843,0.404 -1.543,0.959 -2.09,1.67 l 1.299,1.479 c 1.056,-1.192 2.175,-1.788 3.36,-1.788 0.833,0 1.539,0.264 2.123,0.797 0.58,0.532 0.871,1.159 0.871,1.877 0,0.59 -0.194,1.119 -0.575,1.582 -0.389,0.453 -1.253,1.026 -2.61,1.713 -1.45,0.752 -2.439,1.489 -2.962,2.219 -0.522,0.728 -0.787,1.562 -0.787,2.5 0,1.221 0.42,2.236 1.253,3.043 0.833,0.809 1.891,1.213 3.164,1.213 C -2.988,2.174 -1.501,1.447 0,0"
             style="fill:#ffffff;fill-opacity:1;fill-rule:nonzero;stroke:none"
             id="path918" /></g></g></g></g></svg>
